<svg width="24" height="24" viewBox="0 0 24 24" fill="none" xmlns="http://www.w3.org/2000/svg">
<path d="M20.9992 11.0451L21 19.9147C21 20.3605 20.9536 20.5222 20.8664 20.6851C20.7793 20.8481 20.6514 20.976 20.4884 21.0631C20.3255 21.1503 20.1638 21.1967 19.7181 21.1967H15.2819C14.8362 21.1967 14.6745 21.1503 14.5116 21.0631C14.3486 20.976 14.2207 20.8481 14.1336 20.6851C14.0464 20.5222 14 20.3605 14 19.9147V15.4786C14 15.0329 13.9536 14.8712 13.8664 14.7083C13.7793 14.5453 13.6514 14.4174 13.4884 14.3303C13.3255 14.2431 13.1638 14.1967 12.7181 14.1967H11.2819C10.8362 14.1967 10.6745 14.2431 10.5116 14.3303C10.3486 14.4174 10.2207 14.5453 10.1336 14.7083C10.0464 14.8712 10 15.0329 10 15.4786V19.9147C10 20.3605 9.95359 20.5222 9.86643 20.6851C9.77928 20.8481 9.65139 20.976 9.48842 21.0631C9.32546 21.1503 9.16382 21.1967 8.71806 21.1967H4.28194C3.83618 21.1967 3.67454 21.1503 3.51158 21.0631C3.34861 20.976 3.22072 20.8481 3.13357 20.6851C3.04641 20.5222 3 20.3605 3 19.9147V11.2432C3 10.4068 3.03626 10.1131 3.12103 9.78985C3.20581 9.46659 3.3391 9.18201 3.53316 8.90994L3.63288 8.77685C3.80691 8.55705 4.0367 8.33278 4.5722 7.88652L11.1575 2.3988C11.465 2.14252 11.5992 2.07627 11.7594 2.03269C11.9195 1.9891 12.0805 1.9891 12.2406 2.03269C12.4008 2.07627 12.535 2.14252 12.8425 2.3988L19.4278 7.88652C20.0704 8.42203 20.2728 8.63787 20.4668 8.90994C20.6609 9.18201 20.7942 9.46659 20.879 9.78985C20.9567 10.0862 20.9936 10.3576 20.9992 11.0451Z" fill="white"/>
</svg>
