<svg width="24" height="24" viewBox="0 0 24 24" fill="none" xmlns="http://www.w3.org/2000/svg">
<path d="M17.7506 13.9953C18.9927 13.9953 19.9995 15.0022 19.9995 16.2442V17.1626C19.9995 17.736 19.8203 18.295 19.4869 18.7615C17.941 20.9248 15.4167 21.9964 11.9965 21.9964C8.57549 21.9964 6.05253 20.9243 4.51037 18.7599C4.17841 18.294 4 17.7362 4 17.1641V16.2442C4 15.0022 5.00686 13.9953 6.24888 13.9953H17.7506ZM11.9965 2C14.7579 2 16.9965 4.23858 16.9965 7C16.9965 9.76142 14.7579 12 11.9965 12C9.23503 12 6.99646 9.76142 6.99646 7C6.99646 4.23858 9.23503 2 11.9965 2Z" fill="white"/>
</svg>
