<svg width="16" height="16" viewBox="0 0 16 16" fill="none" xmlns="http://www.w3.org/2000/svg">
<path d="M7.33334 13.3334C7.14445 13.3334 6.98601 13.2694 6.85801 13.1414C6.73001 13.0134 6.66623 12.8552 6.66667 12.6667V8.66675L2.80001 3.73341C2.63334 3.51119 2.60823 3.27786 2.72467 3.03341C2.84112 2.78897 3.04401 2.66675 3.33334 2.66675H12.6667C12.9556 2.66675 13.1585 2.78897 13.2753 3.03341C13.3922 3.27786 13.3671 3.51119 13.2 3.73341L9.33334 8.66675V12.6667C9.33334 12.8556 9.26934 13.0141 9.14134 13.1421C9.01334 13.2701 8.85512 13.3339 8.66667 13.3334H7.33334Z" fill="black"/>
</svg>
