<svg width="16" height="16" viewBox="0 0 16 16" fill="none" xmlns="http://www.w3.org/2000/svg">
<path d="M5.33334 12H2.66667C2.47778 12 2.31934 11.936 2.19134 11.808C2.06334 11.68 1.99956 11.5218 2 11.3333C2 11.1444 2.064 10.986 2.192 10.858C2.32 10.73 2.47822 10.6662 2.66667 10.6667H5.33334C5.52222 10.6667 5.68067 10.7307 5.80867 10.8587C5.93667 10.9867 6.00045 11.1449 6 11.3333C6 11.5222 5.936 11.6807 5.808 11.8087C5.68 11.9367 5.52178 12.0004 5.33334 12ZM13.3333 5.33334H2.66667C2.47778 5.33334 2.31934 5.26934 2.19134 5.14134C2.06334 5.01334 1.99956 4.85511 2 4.66667C2 4.47778 2.064 4.31934 2.192 4.19134C2.32 4.06334 2.47822 3.99956 2.66667 4H13.3333C13.5222 4 13.6807 4.064 13.8087 4.192C13.9367 4.32 14.0004 4.47822 14 4.66667C14 4.85556 13.936 5.014 13.808 5.142C13.68 5.27 13.5218 5.33378 13.3333 5.33334ZM9.33334 8.66667H2.66667C2.47778 8.66667 2.31934 8.60267 2.19134 8.47467C2.06334 8.34667 1.99956 8.18845 2 8C2 7.81111 2.064 7.65267 2.192 7.52467C2.32 7.39667 2.47822 7.33289 2.66667 7.33334H9.33334C9.52222 7.33334 9.68067 7.39734 9.80867 7.52534C9.93667 7.65334 10.0004 7.81156 10 8C10 8.18889 9.936 8.34734 9.808 8.47534C9.68 8.60334 9.52178 8.66711 9.33334 8.66667Z" fill="black"/>
</svg>
