<svg width="24" height="24" viewBox="0 0 24 24" fill="none" xmlns="http://www.w3.org/2000/svg">
<path d="M2 2.83333C2 2.3731 2.3731 2 2.83333 2C3.29357 2 3.66667 2.3731 3.66667 2.83333V20.3333H21.1667C21.6269 20.3333 22 20.7064 22 21.1667C22 21.6269 21.6269 22 21.1667 22H2.83333C2.3731 22 2 21.6269 2 21.1667V2.83333Z" fill="#CBF3F0"/>
<path d="M20.3334 6.16667C20.3334 5.85102 20.155 5.56247 19.8727 5.42131C19.5904 5.28015 19.2525 5.31061 19 5.5L12.7774 10.1669L8.53365 7.67061C8.29029 7.52746 7.99099 7.51727 7.73846 7.64353L4.77778 9.12386V19.2222H20.3333L20.3334 6.16667Z" fill="#CBF3F0"/>
</svg>
